<?xml version="1.0" encoding="UTF-8"?>
<svg width="82px" height="75px" viewBox="0 0 82 75" version="1.1" xmlns="http://www.w3.org/2000/svg" xmlns:xlink="http://www.w3.org/1999/xlink">
    <!-- Generator: Sketch 49 (51002) - http://www.bohemiancoding.com/sketch -->
    <title>“</title>
    <desc>Created with Sketch.</desc>
    <defs></defs>
    <g id="homepage-1920" stroke="none" stroke-width="1" fill="none" fill-rule="evenodd" opacity="0.5">
        <g id="loft-homepag-1920-" transform="translate(-672.000000, -3448.000000)" fill="#E6E6E6">
            <path d="M700.476364,3496.94578 C702.364858,3499.65664 703.309091,3502.91966 703.309091,3506.73494 C703.309091,3511.55424 701.818197,3515.46986 698.836364,3518.48193 C695.854531,3521.49399 692.176992,3523 687.803636,3523 C683.032703,3523 679.206075,3521.44379 676.323636,3518.33133 C673.441198,3515.21886 672,3511.35344 672,3506.73494 C672,3504.32529 672.248482,3501.96587 672.745455,3499.65663 C673.242427,3497.34738 674.286053,3493.98396 675.876364,3489.56627 L688.4,3448 L702.712727,3448 L692.574545,3491.37349 C695.953956,3492.37752 698.587869,3494.23493 700.476364,3496.94578 Z M751.167273,3496.94578 C753.055767,3499.65664 754,3502.91966 754,3506.73494 C754,3511.55424 752.509106,3515.46986 749.527273,3518.48193 C746.54544,3521.49399 742.867901,3523 738.494545,3523 C733.723613,3523 729.896984,3521.44379 727.014545,3518.33133 C724.132107,3515.21886 722.690909,3511.35344 722.690909,3506.73494 C722.690909,3504.32529 722.939391,3501.96587 723.436364,3499.65663 C723.933336,3497.34738 724.976962,3493.98396 726.567273,3489.56627 L739.090909,3448 L753.403636,3448 L743.265455,3491.37349 C746.644865,3492.37752 749.278778,3494.23493 751.167273,3496.94578 Z" id="“"></path>
        </g>
    </g>
</svg>