<?xml version="1.0" encoding="UTF-8"?>
<svg width="20px" height="20px" viewBox="0 0 20 20" version="1.1" xmlns="http://www.w3.org/2000/svg" xmlns:xlink="http://www.w3.org/1999/xlink">
    <!-- Generator: Sketch 49 (51002) - http://www.bohemiancoding.com/sketch -->
    <title>done [#1478]</title>
    <desc>Created with Sketch.</desc>
    <defs></defs>
    <g id="category-1920" stroke="none" stroke-width="1" fill="none" fill-rule="evenodd">
        <g id="filter-category-1920" transform="translate(-290.000000, -134.000000)" fill="#1B342E">
            <path d="M303.553,142.168 L299.312,146.408 C298.92,146.8 298.285,146.8 297.893,146.408 L295.774,144.289 C295.383,143.899 295.383,143.266 295.774,142.875 C296.164,142.485 296.798,142.485 297.188,142.875 L297.896,143.583 C298.286,143.973 298.919,143.973 299.31,143.583 L302.139,140.754 C302.529,140.363 303.162,140.363 303.553,140.754 C303.944,141.144 303.944,141.777 303.553,142.168 M308,134 L292,134 C290.895,134 290,134.895 290,136 L290,152 C290,153.104 290.895,154 292,154 L308,154 C309.105,154 310,153.104 310,152 L310,136 C310,134.895 309.105,134 308,134" id="done-[#1478]"></path>
        </g>
    </g>
</svg>